<svg id="svg" version="1.1" xmlns="http://www.w3.org/2000/svg" xmlns:xlink="http://www.w3.org/1999/xlink" width="400" height="300" viewBox="0, 0, 400,300"><g id="svgg"><path id="path0" d="M135.603 134.549 C 100.294 194.800,71.398 244.298,71.390 244.543 C 71.369 245.166,108.669 275.079,109.271 274.922 C 109.510 274.860,125.802 263.798,145.476 250.342 L 181.246 225.875 160.623 225.811 C 149.280 225.776,140.000 225.684,140.000 225.608 C 140.000 225.373,199.866 120.253,200.000 120.252 C 200.106 120.252,259.973 224.939,260.208 225.537 C 260.253 225.652,250.886 225.776,239.392 225.811 L 218.492 225.875 254.393 250.342 C 274.138 263.798,290.489 274.859,290.728 274.922 C 291.331 275.079,328.631 245.167,328.610 244.543 C 328.593 244.017,200.291 25.000,200.000 25.000 C 199.891 25.000,170.912 74.297,135.603 134.549 " stroke="none" fill="#046cb4" fill-rule="evenodd"></path><path id="path1" d="" stroke="none" fill="#086cb4" fill-rule="evenodd"></path><path id="path2" d="" stroke="none" fill="#086cb4" fill-rule="evenodd"></path><path id="path3" d="" stroke="none" fill="#086cb4" fill-rule="evenodd"></path><path id="path4" d="" stroke="none" fill="#086cb4" fill-rule="evenodd"></path></g></svg>